<?xml version="1.0" encoding="UTF-8"?>
<svg version="1.1" viewBox="0 0 1440 1440" width="1280" height="1280" xmlns="http://www.w3.org/2000/svg">
<path transform="translate(0)" d="m0 0h1440v1440h-1440z" fill="transparent" />
<path transform="translate(619,294)" d="m0 0 3 1-9 8-8 6-15 14-13 16-9 13-12 20-8 16-7 16-9 27-5 20-5 33-2 23 1 20 4 29 6 26 8 23 7 17 10 19 11 17 12 16 9 10 7 8 12 13 8 7 13 11 19 14 17 11 15 9 17 10 33 15 24 12 13 8 10 8 16 16 9 13 7 15 3 9 2 13v24l-1 10-2 1-34-12-24-10-29-13-27-13-19-11-1-3v-12l-4-30-6-23-5-10v-2h-2l4 24-1 24-3 20-10-5-24-16-21-16-10-8-24-22-6-5-7-8-13-14-11-14-13-17-10-15-9-15-10-18-10-23-6-16v-3h-2l2 8 3 15 6 23 9 25 10 23 11 21 11 17 16 23 11 13 7 8 2 2v3l-4 1h-54l-24-3-31-7-20-7-20-10-21-14-3-1 7 8 12 10 17 12 20 12 17 8 18 7 26 7 12 2 12 1h46l16-1 14 11 18 14 15 11 17 11 15 9 15 8 8 4-2 4-29 15-20 8-18 6-21 5-33 5-10 1h-46l-33-4-26-6-8-2 3 3 12 5 26 8 21 5 26 4 23 2h33l31-4 22-5 20-6 23-10 19-10 13-8 5-1 25 10 36 13 21 7 1 4-8 21-7 12-10 13-12 12-10 7-14 9-25 12-18 6-26 6-14 2-14 1h-29l-21-2-26-5-30-10-23-10-19-11-12-8-14-10-11-9v-2l-4-2-8-8-7-8-7-7-9-11-10-13-12-17-10-15-10-17-14-27-12-28-9-28-6-24-5-30-2-25v-30l2-29 4-26 6-25 11-35 13-30 15-30 13-22 18-27 9-12 10-13 12-14 9-11 29-29 8-7 11-10 11-9 15-12 14-10 18-13 24-16 10-6 11-7z" fill="#22C55E"/>
<path transform="translate(790,390)" d="m0 0h37l25 3 25 6 24 8 16 7 22 12 18 12 21 16 10 9 9 9 7 8 11 13 12 16 10 14 9 14 14 24 11 22 12 29 9 28 7 29 4 24 1 14v55l-2 23-6 31-8 28-7 21-11 26-8 17-12 22-10 17-13 19-10 14-14 18-13 15-9 10-8 9-8 7-14 14-8 7-14 12-15 12-19 14-18 13-15 10-23 15-21 11-2-1 12-10 11-9 14-14 10-13 9-12 14-24 10-21 8-21 7-24 5-25 3-25v-33l-3-27-5-23-8-25-8-20-11-21-12-19-11-14-11-13-11-12-11-11-8-7-16-13-19-13-19-12-24-13-22-11-23-11-20-11-12-9-13-12-9-11-7-12-6-16-3-16v-22l1-12 7 1 28 10 37 15 43 21 18 10 3 3 1 20 3 24 4 16 5 15 2 3-1-17v-28l2-22 2-1 12 7 22 15 17 14 14 11 15 14 13 12 14 14 7 8 12 14 13 19 10 15 14 24 10 21 9 24 1 3 2 1-5-25-8-28-11-27-12-26-10-18-10-15-14-19-9-11-8-8-1-5 11-1h45l24 3 23 5 16 5 21 8 16 9 17 12 3 1-7-8-15-12-16-12-21-12-19-9-24-8-24-5-24-2h-28l-26 1-13-11-14-11-13-10-20-13-20-12-20-11 2-4 34-17 21-8 20-6 25-5 30-4h34l26 2 21 3 22 5 9 1-15-7-7-3-51-12-22-3-13-1h-28l-29 3-26 5-26 8-17 7-20 10-16 10-5 2-25-11-32-12-23-7-2-1 1-9 6-16 9-15 9-11 7-7 14-11 14-9 15-8 25-9 23-6 19-3z" fill="#22C55E"/>
</svg>
